<svg width="26" height="26" viewBox="0 0 26 26" fill="none" xmlns="http://www.w3.org/2000/svg">
<path d="M7.65 18.079L9.85125 17.444L23.105 4.03146C23.2095 3.92433 23.2677 3.78038 23.267 3.63069C23.2663 3.48101 23.2068 3.33761 23.1012 3.23146L22.3075 2.42896C22.2562 2.37626 22.1949 2.3343 22.1272 2.30553C22.0596 2.27677 21.9868 2.26178 21.9133 2.26143C21.8397 2.26108 21.7669 2.27538 21.6989 2.3035C21.631 2.33162 21.5693 2.373 21.5175 2.42521L8.29875 15.8027L7.64875 18.0777L7.65 18.079ZM23.8787 0.838963L24.6725 1.64271C25.7675 2.75146 25.7775 4.54021 24.6925 5.63771L11.035 19.4602L6.33 20.8152C6.04275 20.8956 5.73533 20.8588 5.4752 20.7128C5.21508 20.5668 5.0235 20.3236 4.9425 20.0365C4.88223 19.8301 4.88136 19.6108 4.94 19.404L6.30875 14.604L19.93 0.817713C20.189 0.556911 20.4974 0.350291 20.8371 0.209904C21.1768 0.069517 21.541 -0.00182614 21.9086 3.5516e-05C22.2761 0.00189717 22.6396 0.0769262 22.9779 0.220747C23.3162 0.364567 23.6224 0.574301 23.8787 0.837714V0.838963ZM9.48 2.28021C10.1 2.28021 10.6025 2.78896 10.6025 3.41646C10.6035 3.5648 10.5752 3.71187 10.5193 3.84928C10.4634 3.98669 10.381 4.11173 10.2768 4.21725C10.1725 4.32278 10.0485 4.40673 9.91177 4.46429C9.77506 4.52185 9.62834 4.5519 9.48 4.55271H4.99C3.75 4.55271 2.745 5.57021 2.745 6.82396V20.4565C2.745 21.7115 3.75 22.729 4.99 22.729H18.46C19.7 22.729 20.7063 21.7115 20.7063 20.4565V15.9127C20.7063 15.2852 21.2087 14.7765 21.8288 14.7765C22.4487 14.7765 22.9513 15.2852 22.9513 15.914V20.4565C22.9513 22.9665 20.94 25.0015 18.46 25.0015H4.99C2.51 25.0015 0.5 22.9665 0.5 20.4565V6.82396C0.5 4.31521 2.51 2.28021 4.99 2.28021H9.48Z" fill="black"/>
</svg>
