<svg width="40" height="40" viewBox="0 0 40 40" fill="none" xmlns="http://www.w3.org/2000/svg">
<path d="M37.9688 0.46875H2.03125C1.16699 0.46875 0.46875 1.16699 0.46875 2.03125V37.9688C0.46875 38.833 1.16699 39.5312 2.03125 39.5312H37.9688C38.833 39.5312 39.5312 38.833 39.5312 37.9688V2.03125C39.5312 1.16699 38.833 0.46875 37.9688 0.46875ZM36.0156 36.0156H3.98438V3.98438H36.0156V36.0156ZM19.0234 14.5312H28.0078C28.2227 14.5312 28.3984 14.3555 28.3984 14.1406V11.7969C28.3984 11.582 28.2227 11.4062 28.0078 11.4062H19.0234C18.8086 11.4062 18.6328 11.582 18.6328 11.7969V14.1406C18.6328 14.3555 18.8086 14.5312 19.0234 14.5312ZM19.0234 21.5625H28.0078C28.2227 21.5625 28.3984 21.3867 28.3984 21.1719V18.8281C28.3984 18.6133 28.2227 18.4375 28.0078 18.4375H19.0234C18.8086 18.4375 18.6328 18.6133 18.6328 18.8281V21.1719C18.6328 21.3867 18.8086 21.5625 19.0234 21.5625ZM19.0234 28.5938H28.0078C28.2227 28.5938 28.3984 28.418 28.3984 28.2031V25.8594C28.3984 25.6445 28.2227 25.4688 28.0078 25.4688H19.0234C18.8086 25.4688 18.6328 25.6445 18.6328 25.8594V28.2031C18.6328 28.418 18.8086 28.5938 19.0234 28.5938ZM11.6016 12.9688C11.6016 13.4868 11.8073 13.9835 12.1736 14.3498C12.5399 14.7161 13.0367 14.9219 13.5547 14.9219C14.0727 14.9219 14.5695 14.7161 14.9358 14.3498C15.302 13.9835 15.5078 13.4868 15.5078 12.9688C15.5078 12.4507 15.302 11.954 14.9358 11.5877C14.5695 11.2214 14.0727 11.0156 13.5547 11.0156C13.0367 11.0156 12.5399 11.2214 12.1736 11.5877C11.8073 11.954 11.6016 12.4507 11.6016 12.9688ZM11.6016 20C11.6016 20.518 11.8073 21.0148 12.1736 21.3811C12.5399 21.7474 13.0367 21.9531 13.5547 21.9531C14.0727 21.9531 14.5695 21.7474 14.9358 21.3811C15.302 21.0148 15.5078 20.518 15.5078 20C15.5078 19.482 15.302 18.9852 14.9358 18.6189C14.5695 18.2526 14.0727 18.0469 13.5547 18.0469C13.0367 18.0469 12.5399 18.2526 12.1736 18.6189C11.8073 18.9852 11.6016 19.482 11.6016 20ZM11.6016 27.0312C11.6016 27.5493 11.8073 28.046 12.1736 28.4123C12.5399 28.7786 13.0367 28.9844 13.5547 28.9844C14.0727 28.9844 14.5695 28.7786 14.9358 28.4123C15.302 28.046 15.5078 27.5493 15.5078 27.0312C15.5078 26.5132 15.302 26.0165 14.9358 25.6502C14.5695 25.2839 14.0727 25.0781 13.5547 25.0781C13.0367 25.0781 12.5399 25.2839 12.1736 25.6502C11.8073 26.0165 11.6016 26.5132 11.6016 27.0312Z" fill="white"/>
</svg>

