<svg width="360" height="258" viewBox="0 0 360 258" fill="none" xmlns="http://www.w3.org/2000/svg">
<g clip-path="url(#clip0)">
<path d="M0 257.826H57.907" stroke="#3F3D56" stroke-miterlimit="10"/>
<path d="M335.094 44.4356H91.534C87.7969 44.4356 84.7673 47.4563 84.7673 51.1826V211.253C84.7673 214.979 87.7969 218 91.534 218H335.094C338.831 218 341.86 214.979 341.86 211.253V51.1826C341.86 47.4563 338.831 44.4356 335.094 44.4356Z" fill="#F2F2F2"/>
<path d="M327.245 33.4791H83.6853C79.9482 33.4791 76.9187 36.4998 76.9187 40.2261V200.297C76.9187 204.023 79.9482 207.044 83.6853 207.044H327.245C330.982 207.044 334.012 204.023 334.012 200.297V40.2261C334.012 36.4998 330.982 33.4791 327.245 33.4791Z" stroke="#3F3D56" stroke-miterlimit="10"/>
<path d="M76.9187 50.1191H334.012" stroke="#3F3D56" stroke-miterlimit="10"/>
<path opacity="0.3" d="M298.224 89.1311H233.056C231.689 89.1311 230.582 90.2356 230.582 91.598V97.4467C230.582 98.8091 231.689 99.9136 233.056 99.9136H298.224C299.59 99.9136 300.698 98.8091 300.698 97.4467V91.598C300.698 90.2356 299.59 89.1311 298.224 89.1311Z" fill="#FF7F63"/>
<path opacity="0.3" d="M311.654 119.044H219.625C218.259 119.044 217.151 120.148 217.151 121.511V125.273C217.151 126.635 218.259 127.74 219.625 127.74H311.654C313.02 127.74 314.128 126.635 314.128 125.273V121.511C314.128 120.148 313.02 119.044 311.654 119.044Z" fill="#FF7F63"/>
<path opacity="0.3" d="M311.654 142.696H219.625C218.259 142.696 217.151 143.801 217.151 145.163V148.925C217.151 150.287 218.259 151.392 219.625 151.392H311.654C313.02 151.392 314.128 150.287 314.128 148.925V145.163C314.128 143.801 313.02 142.696 311.654 142.696Z" fill="#FF7F63"/>
<path opacity="0.3" d="M311.654 166.348H219.625C218.259 166.348 217.151 167.453 217.151 168.815V172.577C217.151 173.939 218.259 175.044 219.625 175.044H311.654C313.02 175.044 314.128 173.939 314.128 172.577V168.815C314.128 167.453 313.02 166.348 311.654 166.348Z" fill="#FF7F63"/>
<path d="M301.712 85.6528H236.544C235.178 85.6528 234.07 86.7573 234.07 88.1198V93.9684C234.07 95.3309 235.178 96.4354 236.544 96.4354H301.712C303.078 96.4354 304.186 95.3309 304.186 93.9684V88.1198C304.186 86.7573 303.078 85.6528 301.712 85.6528Z" stroke="#3F3D56" stroke-miterlimit="10"/>
<path d="M315.142 115.566H223.114C221.747 115.566 220.64 116.67 220.64 118.033V121.794C220.64 123.157 221.747 124.261 223.114 124.261H315.142C316.509 124.261 317.616 123.157 317.616 121.794V118.033C317.616 116.67 316.509 115.566 315.142 115.566Z" stroke="#3F3D56" stroke-miterlimit="10"/>
<path d="M315.142 139.218H223.114C221.747 139.218 220.64 140.322 220.64 141.685V145.446C220.64 146.809 221.747 147.913 223.114 147.913H315.142C316.509 147.913 317.616 146.809 317.616 145.446V141.685C317.616 140.322 316.509 139.218 315.142 139.218Z" stroke="#3F3D56" stroke-miterlimit="10"/>
<path d="M315.142 162.87H223.114C221.747 162.87 220.64 163.974 220.64 165.337V169.099C220.64 170.461 221.747 171.566 223.114 171.566H315.142C316.509 171.566 317.616 170.461 317.616 169.099V165.337C317.616 163.974 316.509 162.87 315.142 162.87Z" stroke="#3F3D56" stroke-miterlimit="10"/>
<path opacity="0.3" d="M96.4535 49.1312C99.3434 49.1312 101.686 46.7953 101.686 43.9138C101.686 41.0324 99.3434 38.6965 96.4535 38.6965C93.5636 38.6965 91.2209 41.0324 91.2209 43.9138C91.2209 46.7953 93.5636 49.1312 96.4535 49.1312Z" fill="#FF7F63"/>
<path opacity="0.3" d="M111.105 49.1312C113.994 49.1312 116.337 46.7953 116.337 43.9138C116.337 41.0324 113.994 38.6965 111.105 38.6965C108.215 38.6965 105.872 41.0324 105.872 43.9138C105.872 46.7953 108.215 49.1312 111.105 49.1312Z" fill="#FF7F63"/>
<path opacity="0.3" d="M125.756 49.1312C128.646 49.1312 130.988 46.7953 130.988 43.9138C130.988 41.0324 128.646 38.6965 125.756 38.6965C122.866 38.6965 120.523 41.0324 120.523 43.9138C120.523 46.7953 122.866 49.1312 125.756 49.1312Z" fill="#FF7F63"/>
<path d="M98.5465 47.0443C101.436 47.0443 103.779 44.7084 103.779 41.8269C103.779 38.9454 101.436 36.6095 98.5465 36.6095C95.6567 36.6095 93.314 38.9454 93.314 41.8269C93.314 44.7084 95.6567 47.0443 98.5465 47.0443Z" stroke="#3F3D56" stroke-miterlimit="10"/>
<path d="M113.198 47.0443C116.088 47.0443 118.43 44.7084 118.43 41.8269C118.43 38.9454 116.088 36.6095 113.198 36.6095C110.308 36.6095 107.965 38.9454 107.965 41.8269C107.965 44.7084 110.308 47.0443 113.198 47.0443Z" stroke="#3F3D56" stroke-miterlimit="10"/>
<path d="M127.849 47.0443C130.739 47.0443 133.081 44.7084 133.081 41.8269C133.081 38.9454 130.739 36.6095 127.849 36.6095C124.959 36.6095 122.616 38.9454 122.616 41.8269C122.616 44.7084 124.959 47.0443 127.849 47.0443Z" stroke="#3F3D56" stroke-miterlimit="10"/>
<path d="M158.147 199.739C157.271 195.716 157.038 190.22 157.333 186.397C157.333 186.397 152.903 166.993 149.418 165.182L149.417 165.183C149.363 165.252 147.672 167.463 147.457 174.305C147.24 181.255 144.771 185.817 144.771 185.817C144.771 185.817 145.57 194.48 145.114 199.739L158.147 199.739Z" fill="#FF7F63"/>
<path d="M190.37 76.2615H109.978C108.89 76.2615 107.811 76.4754 106.805 76.8909C105.799 77.3065 104.885 77.9155 104.115 78.6833C103.345 79.4511 102.734 80.3626 102.317 81.3657C101.901 82.3689 101.686 83.4441 101.686 84.5299V191.471C101.686 192.557 101.901 193.632 102.317 194.635C102.734 195.638 103.345 196.55 104.115 197.318C104.885 198.085 105.799 198.694 106.805 199.11C107.811 199.525 108.89 199.739 109.978 199.739H138.184C137.242 195.844 136.071 189.76 137.257 185.53L137.256 185.527L137.257 185.529C137.312 185.331 137.371 185.137 137.437 184.948C138.252 182.203 138.523 179.326 138.236 176.477C138.76 174.043 138.76 171.526 138.236 169.092C137.365 165.038 136.755 161.055 136.755 161.055C136.755 161.055 136.275 155.698 136.694 152.414C136.703 152.342 136.714 152.273 136.724 152.203C136.576 152.17 136.493 152.15 136.493 152.15C136.493 152.15 137.728 146.576 138.163 143.028C138.266 142.19 138.402 141.129 138.548 139.997C138.146 139.93 137.75 139.83 137.365 139.697C133.444 138.322 132.209 125.869 132.209 125.869V121.923C132.209 121.923 130.902 115.877 135.477 113.199C139.882 110.619 141.641 109.913 141.765 109.864C141.799 109.84 141.831 109.818 141.866 109.792C142.363 109.402 142.758 108.897 143.013 108.319C143.019 108.22 143.021 108.121 143.017 108.023C142.943 106.609 141.956 105.322 141.018 104.2C140.219 103.242 139.42 102.285 138.621 101.328C138.347 101.042 138.137 100.703 138.003 100.331C137.953 100.126 137.931 99.9148 137.938 99.7037C137.937 99.6256 137.938 99.5476 137.939 99.4696C137.952 98.7558 137.972 98.0421 137.998 97.3286C138.02 96.7052 138.178 95.9187 138.79 95.7906C139.108 95.7239 139.53 95.8401 139.698 95.5625C139.755 95.4481 139.769 95.3175 139.739 95.1936C139.737 95.2029 139.736 95.2125 139.734 95.2216C139.732 95.21 139.73 95.1983 139.727 95.1869C139.601 94.687 139.525 94.176 139.5 93.6612C139.494 93.4289 139.527 93.1971 139.599 92.976C139.954 91.9412 141.175 91.5166 142.254 91.3213C143.333 91.1261 144.545 90.9581 145.222 90.098C145.403 89.8124 145.6 89.5368 145.811 89.2723C146.122 88.9907 146.504 88.7987 146.916 88.7169C148.255 88.3789 149.67 88.5041 150.929 89.0721C151.451 89.3096 151.976 89.6295 152.548 89.5933C153.143 89.5558 153.651 89.1383 154.238 89.0368C155.187 88.8727 156.094 89.5813 156.561 90.4205C156.858 90.9543 157.007 91.5575 156.991 92.1677C157.003 92.7752 156.783 93.3643 156.376 93.8167C155.968 94.2485 155.359 94.5452 155.189 95.114C155.12 95.3455 155.136 95.5949 155.075 95.8286C155.067 95.8578 155.055 95.8851 155.045 95.9134C155.056 95.9279 155.069 95.9416 155.08 95.9561C155.794 96.8943 156.272 97.9892 156.475 99.1494C156.679 100.31 156.601 101.501 156.248 102.625C155.895 103.749 155.278 104.773 154.448 105.611C153.617 106.448 152.598 107.076 151.475 107.441C151.473 107.514 151.47 107.588 151.47 107.661C151.449 108.118 151.527 108.573 151.698 108.997C151.868 109.421 152.129 109.804 152.461 110.119L158.931 112.764C158.931 112.764 162.826 112.293 164.231 118.089C164.456 119.053 164.538 120.044 164.472 121.031C164.421 121.905 164.54 123.443 165.538 125.434C167.136 128.62 166.773 135.932 163.505 136.657C160.41 137.342 159.206 137.054 159.087 137.022L159.08 137.15C159.131 138.522 159.621 150.356 161.399 151.788C161.891 152.184 161.797 152.452 161.394 152.632L161.395 152.633C161.395 152.633 161.398 152.709 161.406 152.846C161.459 153.712 161.733 157.008 162.924 158.883C164.304 161.055 164.159 173.582 164.159 173.582L165.102 180.966C165.102 180.966 164.522 185.528 165.102 186.324C165.432 186.775 165.831 193.768 166.116 199.739H190.37C192.57 199.739 194.679 198.868 196.234 197.318C197.789 195.767 198.663 193.664 198.663 191.471V84.5299C198.663 83.4441 198.448 82.3689 198.032 81.3657C197.615 80.3626 197.004 79.4511 196.234 78.6833C195.464 77.9155 194.55 77.3065 193.544 76.8909C192.538 76.4754 191.459 76.2615 190.37 76.2615V76.2615Z" fill="#FF7F63"/>
<path d="M181.998 66.8703H101.606C97.0266 66.8703 93.314 70.5721 93.314 75.1386V182.08C93.314 186.646 97.0266 190.348 101.606 190.348H181.998C186.578 190.348 190.291 186.646 190.291 182.08V75.1386C190.291 70.5721 186.578 66.8703 181.998 66.8703Z" stroke="#3F3D56" stroke-miterlimit="10"/>
<path d="M35.1712 111.871C35.1712 111.871 31.9186 110.912 31.2209 111.956C30.5233 112.999 32.1721 120.563 32.1721 120.563L39.3393 120.998L36.838 114.7L35.1712 111.871Z" fill="#2F2E41"/>
<path d="M10.0967 173.989C10.0967 173.989 16.6181 188.265 11.5959 187.816C6.57368 187.368 4.62476 173.989 4.62476 173.989H10.0967Z" fill="#A0616A"/>
<path d="M52.7481 172.502C52.7481 172.502 49.8872 187.927 54.6511 186.28C59.415 184.632 58.0573 171.181 58.0573 171.181L52.7481 172.502Z" fill="#A0616A"/>
<path d="M33.7838 108.292C33.7838 108.292 33.7089 115.467 36.4824 115.841C39.2558 116.214 34.9082 120.026 34.9082 120.026L29.961 120.998L22.8399 120.475L19.6917 116.439C19.6917 116.439 25.2386 113.823 22.8399 105.676L33.7838 108.292Z" fill="#A0616A"/>
<path opacity="0.1" d="M33.7838 108.292C33.7838 108.292 33.7089 115.467 36.4824 115.841C39.2558 116.214 34.9082 120.026 34.9082 120.026L29.961 120.998L22.8399 120.475L19.6917 116.439C19.6917 116.439 25.2386 113.823 22.8399 105.676L33.7838 108.292Z" fill="black"/>
<path d="M46.5268 168.982C46.5268 168.982 50.0498 176.53 47.2764 200.223C47.2764 200.223 48.1009 208.594 47.4263 210.164C46.7517 211.733 41.2047 233.035 41.2047 233.035C41.2047 233.035 34.0837 234.604 33.1092 229.895C33.1092 229.895 34.0837 223.169 34.0087 222.122C33.9337 221.076 35.5828 209.641 35.5828 209.641L32.2097 187.517L29.6611 207.473C29.6611 207.473 29.6611 213.228 28.8365 214.499C28.012 215.769 28.8365 241.331 28.8365 241.331C28.8365 241.331 31.1603 245.217 27.6372 245.292C24.1142 245.367 20.9659 245.217 20.666 242.751C20.3662 240.284 20.2163 237.818 19.4667 236.323C18.7171 234.828 17.7427 217.713 17.9675 211.733C18.1924 205.754 13.0203 175.036 14.6694 171.822C16.3184 168.608 46.5268 168.982 46.5268 168.982Z" fill="#2F2E41"/>
<path d="M29.9609 110.982C34.9287 110.982 38.9559 106.967 38.9559 102.014C38.9559 97.0601 34.9287 93.0446 29.9609 93.0446C24.993 93.0446 20.9658 97.0601 20.9658 102.014C20.9658 106.967 24.993 110.982 29.9609 110.982Z" fill="#A0616A"/>
<path d="M20.9658 116.588C20.9658 116.588 26.4378 120.624 34.3834 117.41C34.3834 117.41 37.0069 116.14 36.7821 114.196C36.5572 112.253 42.254 129.817 42.254 129.817L48.0258 160.386L47.726 172.868C47.726 172.868 45.1774 171.597 37.2318 174.438C29.2862 177.278 16.3184 171.224 16.3184 171.224L16.7681 139.16L17.2179 120.475L18.4172 116.364C18.4172 116.364 19.0169 115.243 20.9658 116.588Z" fill="#F2F2F2"/>
<path d="M34.0337 111.571C34.0337 111.571 35.3578 111.356 36.6321 113.374C37.9064 115.392 40.9048 116.663 40.9048 116.663C40.9048 116.663 48.1758 117.111 49.2252 120.998C50.2746 124.884 52.8982 130.191 54.1724 139.982C55.4467 149.773 57.9953 165.394 58.3701 166.665C58.7449 167.935 57.8454 171.822 58.8948 173.017C59.9443 174.213 51.4739 174.213 51.4739 174.213C51.4739 174.213 50.7244 168.085 50.1996 168.085C49.6749 168.085 49.8248 172.195 50.3496 175.185C50.8743 178.175 46.5267 175.185 46.5267 175.185C46.5267 175.185 43.1535 161.507 39.9303 149.175C36.7071 136.843 34.8331 130.041 35.4328 127.276C36.0324 124.511 37.6816 116.588 36.4822 115.841C35.2829 115.093 34.0337 111.571 34.0337 111.571Z" fill="#2F2E41"/>
<path d="M23.2241 111.564C23.2241 111.564 21.2657 112.627 16.3184 116.14C11.3712 119.652 7.99803 122.343 7.99803 122.343C7.99803 122.343 6.04911 123.838 4.84978 132.732C3.65045 141.626 0.951928 164.646 2.00135 167.561C3.05078 170.476 3.42557 172.195 3.05077 173.914C2.67598 175.633 10.9214 175.559 11.0713 175.185C11.2213 174.811 10.8465 168.01 11.2213 167.86C11.5961 167.711 13.6199 171.896 13.9947 175.409C14.3695 178.922 18.7171 181.687 19.6916 181.687C20.6661 181.687 25.6883 161.433 25.7632 147.606C25.8382 133.778 24.1141 122.119 22.8398 120.475C21.5655 118.83 23.2241 111.564 23.2241 111.564Z" fill="#2F2E41"/>
<path d="M36.4072 233.707C36.4072 233.707 37.0068 232.063 39.1057 232.586C41.2045 233.109 42.6287 231.241 42.6287 231.241C42.6287 231.241 43.7531 231.091 43.0035 232.511C42.2539 233.931 41.6543 234.903 41.6543 234.903C41.6543 234.903 46.1518 245.143 43.2284 247.609C40.305 250.075 36.9319 248.581 36.9319 248.581C36.9319 248.581 33.6337 246.264 33.7836 240.135C33.7836 240.135 33.6337 238.192 31.8347 235.053C30.0357 231.913 28.6864 227.13 30.8602 226.233C33.034 225.336 33.5935 225.303 33.5935 225.303C33.5935 225.303 32.5763 229.942 35.2039 231.563L36.4072 233.707Z" fill="#3F3D56"/>
<path d="M22.4649 245.292C22.4649 245.292 20.6659 241.929 23.6642 241.555C26.6625 241.181 29.8858 240.957 29.7358 242.527C29.5859 244.096 29.2111 246.488 29.2111 246.488L29.7358 248.207C29.7358 248.207 29.8858 252.467 30.4105 252.99C30.9352 253.514 33.7836 257.998 27.712 257.998C21.6403 257.998 19.8413 257.325 20.366 255.905C20.8907 254.485 21.0407 247.46 21.0407 247.46L22.4649 245.292Z" fill="#3F3D56"/>
<path d="M27.1125 94.8384C27.1125 94.8384 31.3102 95.9595 33.484 96.408C35.6578 96.8564 35.4329 95.5858 35.4329 95.5858C35.4329 95.5858 38.2813 95.9595 38.1314 95.6606C37.9815 95.3616 39.3308 93.792 37.7566 91.9982C36.1825 90.2044 36.6322 88.8591 36.6322 88.8591H35.283L34.9082 88.3359H32.8094C32.8094 88.3359 31.2352 87.738 27.1125 88.3359C22.9898 88.9339 17.3679 89.0833 16.9181 91.5498C16.4684 94.0163 14.1447 97.0806 14.9692 98.5007C15.7938 99.9208 20.5161 105.751 20.9659 108.217C21.4156 110.683 23.5157 111.232 23.4401 109.687C23.3646 108.142 21.2657 102.761 23.0647 102.537C24.8637 102.313 27.937 97.7533 27.1125 94.8384Z" fill="#2F2E41"/>
<path d="M326.121 2.59387C324.634 2.67762 323.2 3.17273 321.979 4.02368C320.759 4.87463 319.8 6.04778 319.211 7.41159C317.483 11.5764 319.708 16.4685 323.048 19.5056C326.387 22.5426 330.678 24.2785 334.576 26.5603C339.812 29.625 344.517 33.8795 347.137 39.3407C349.756 44.8019 350.035 51.5668 346.956 56.7841C344.097 61.6266 338.9 64.5249 333.943 67.1978" stroke="#3F3D56" stroke-miterlimit="10"/>
<path d="M330.523 5.91302C333.895 5.91302 336.628 4.58935 336.628 2.95651C336.628 1.32367 333.895 0 330.523 0C327.152 0 324.419 1.32367 324.419 2.95651C324.419 4.58935 327.152 5.91302 330.523 5.91302Z" fill="#FF7F63"/>
<path d="M335.407 25.3912C338.778 25.3912 341.512 24.0675 341.512 22.4347C341.512 20.8019 338.778 19.4782 335.407 19.4782C332.035 19.4782 329.302 20.8019 329.302 22.4347C329.302 24.0675 332.035 25.3912 335.407 25.3912Z" fill="#FF7F63"/>
<path d="M324.244 28.5216C327.616 28.5216 330.349 27.198 330.349 25.5651C330.349 23.9323 327.616 22.6086 324.244 22.6086C320.873 22.6086 318.14 23.9323 318.14 25.5651C318.14 27.198 320.873 28.5216 324.244 28.5216Z" fill="#FF7F63"/>
<path d="M341.686 44.8694C345.057 44.8694 347.791 43.5457 347.791 41.9129C347.791 40.2801 345.057 38.9564 341.686 38.9564C338.314 38.9564 335.581 40.2801 335.581 41.9129C335.581 43.5457 338.314 44.8694 341.686 44.8694Z" fill="#FF7F63"/>
<path d="M353.895 44.8694C357.267 44.8694 360 43.5457 360 41.9129C360 40.2801 357.267 38.9564 353.895 38.9564C350.524 38.9564 347.791 40.2801 347.791 41.9129C347.791 43.5457 350.524 44.8694 353.895 44.8694Z" fill="#FF7F63"/>
</g>
<defs>
<clipPath id="clip0">
<rect width="360" height="258" fill="white"/>
</clipPath>
</defs>
</svg>
