<svg width="30" height="30" viewBox="0 0 30 30" fill="none" xmlns="http://www.w3.org/2000/svg">
<path d="M15 0C12.9545 0 11.3565 0.788691 10.206 2.36607C9.0554 3.94345 8.48011 5.95982 8.48011 8.41518C8.46591 11.4658 9.40341 13.8839 11.2926 15.6696C11.5341 15.9077 11.6193 16.2128 11.5483 16.5848L11.0582 17.6562C10.902 18.0134 10.6712 18.2924 10.3658 18.4933C10.0604 18.6942 9.41761 18.9807 8.4375 19.3527C8.39489 19.3676 7.49645 19.6726 5.74219 20.2679C3.98793 20.8631 3.05398 21.1905 2.94034 21.25C1.74716 21.7708 0.965909 22.314 0.596591 22.8795C0.198864 23.817 0 26.1905 0 30H30C30 26.1905 29.8011 23.817 29.4034 22.8795C29.0341 22.314 28.2528 21.7708 27.0597 21.25C26.946 21.1905 26.0121 20.8631 24.2578 20.2679C22.5036 19.6726 21.6051 19.3676 21.5625 19.3527C20.5824 18.9807 19.9396 18.6942 19.6342 18.4933C19.3288 18.2924 19.098 18.0134 18.9418 17.6562L18.4517 16.5848C18.3807 16.2128 18.4659 15.9077 18.7074 15.6696C20.5966 13.8839 21.5341 11.4658 21.5199 8.41518C21.5199 5.95982 20.9446 3.94345 19.794 2.36607C18.6435 0.788691 17.0455 0 15 0Z" fill="black"/>
</svg>
