<svg width="30" height="30" viewBox="0 0 30 30" fill="none" xmlns="http://www.w3.org/2000/svg">
<path d="M15 30C12.2852 30 9.77539 29.3311 7.4707 27.9932C5.16602 26.6553 3.34473 24.834 2.00684 22.5293C0.668945 20.2246 0 17.7148 0 15C0 12.2852 0.668945 9.77539 2.00684 7.4707C3.34473 5.16602 5.16602 3.34473 7.4707 2.00684C9.77539 0.668945 12.2852 0 15 0C17.7148 0 20.2246 0.668945 22.5293 2.00684C24.834 3.34473 26.6553 5.16602 27.9932 7.4707C29.3311 9.77539 30 12.2852 30 15C30 17.7148 29.3311 20.2246 27.9932 22.5293C26.6553 24.834 24.834 26.6553 22.5293 27.9932C20.2246 29.3311 17.7148 30 15 30ZM1.875 15H15V1.875C13.2227 1.875 11.5234 2.22168 9.90234 2.91504C8.28125 3.6084 6.88477 4.54102 5.71289 5.71289C4.54102 6.88477 3.6084 8.28125 2.91504 9.90234C2.22168 11.5234 1.875 13.2227 1.875 15Z" fill="black"/>
</svg>
