<svg width="350" height="220" viewBox="0 0 350 220" fill="none" xmlns="http://www.w3.org/2000/svg">
<path d="M100.409 1.54072L31.3803 15.2861C28.5521 15.8492 26.7782 18.3231 27.4183 20.8115L51.1527 113.083C51.7928 115.572 54.6045 117.132 57.4328 116.569L126.462 102.824C129.29 102.261 131.064 99.7868 130.424 97.2983L106.689 5.02673C106.049 2.53828 103.237 0.977543 100.409 1.54072Z" fill="#3F3D56"/>
<path d="M34.233 31.9775C35.528 31.9775 36.5778 31.0538 36.5778 29.9144C36.5778 28.775 35.528 27.8514 34.233 27.8514C32.938 27.8514 31.8882 28.775 31.8882 29.9144C31.8882 31.0538 32.938 31.9775 34.233 31.9775Z" fill="white"/>
<path d="M36.578 39.5421C37.873 39.5421 38.9228 38.6184 38.9228 37.479C38.9228 36.3396 37.873 35.416 36.578 35.416C35.283 35.416 34.2332 36.3396 34.2332 37.479C34.2332 38.6184 35.283 39.5421 36.578 39.5421Z" fill="white"/>
<path d="M51.8192 94.901C53.1142 94.901 54.164 93.9774 54.164 92.838C54.164 91.6986 53.1142 90.7749 51.8192 90.7749C50.5242 90.7749 49.4744 91.6986 49.4744 92.838C49.4744 93.9774 50.5242 94.901 51.8192 94.901Z" fill="white"/>
<path d="M54.1639 102.466C55.4589 102.466 56.5087 101.542 56.5087 100.403C56.5087 99.2631 55.4589 98.3395 54.1639 98.3395C52.8689 98.3395 51.8191 99.2631 51.8191 100.403C51.8191 101.542 52.8689 102.466 54.1639 102.466Z" fill="white"/>
<path d="M100.118 39.9148L52.5198 49.3928L54.3152 56.3726L101.913 46.8947L100.118 39.9148Z" fill="#F5F5F5"/>
<path d="M163.285 36.8071L84.0142 52.5919L110.067 153.875L189.338 138.09L163.285 36.8071Z" fill="#FF8863"/>
<path d="M246.88 20.1614L167.609 35.9462L193.662 137.229L272.933 121.444L246.88 20.1614Z" fill="#3F3D56"/>
<path d="M148.577 51.2617L100.979 60.7396L102.774 67.7194L150.372 58.2415L148.577 51.2617Z" fill="#F5F5F5"/>
<path d="M160.849 66.55L97.385 79.1872L97.8339 80.9322L161.298 68.2949L160.849 66.55Z" fill="#F5F5F5"/>
<path d="M161.896 70.6215L98.4321 83.2587L98.881 85.0037L162.345 72.3665L161.896 70.6215Z" fill="#F5F5F5"/>
<path d="M162.943 74.6931L99.4795 87.3303L99.9283 89.0752L163.392 76.438L162.943 74.6931Z" fill="#F5F5F5"/>
<path d="M130.937 85.3465L100.527 91.4019L100.976 93.1468L131.385 87.0915L130.937 85.3465Z" fill="#F5F5F5"/>
<path d="M136.612 88.4966L101.574 95.4734L102.023 97.2183L137.06 90.2415L136.612 88.4966Z" fill="#F5F5F5"/>
<path d="M166.085 86.9077L102.621 99.5449L103.07 101.29L166.534 88.6527L166.085 86.9077Z" fill="#F5F5F5"/>
<path d="M167.133 90.9793L103.669 103.617L104.118 105.361L167.581 92.7242L167.133 90.9793Z" fill="#F5F5F5"/>
<path d="M163.552 95.9724L104.716 107.688L105.165 109.433L164.001 97.7173L163.552 95.9724Z" fill="#F5F5F5"/>
<path d="M169.227 99.1224L105.763 111.76L106.212 113.505L169.676 100.867L169.227 99.1224Z" fill="#F5F5F5"/>
<path d="M139.865 109.249L106.811 115.831L107.26 117.576L140.314 110.994L139.865 109.249Z" fill="#F5F5F5"/>
<path opacity="0.3" d="M228.986 96.3946L193.948 103.371L194.397 105.116L229.434 98.1396L228.986 96.3946Z" fill="#FF8863"/>
<path opacity="0.3" d="M258.459 94.8058L194.996 107.443L195.444 109.188L258.908 96.5508L258.459 94.8058Z" fill="#FF8863"/>
<path opacity="0.3" d="M259.507 98.8774L196.043 111.515L196.492 113.26L259.956 100.622L259.507 98.8774Z" fill="#FF8863"/>
<path opacity="0.3" d="M255.926 103.87L197.09 115.586L197.539 117.331L256.375 105.615L255.926 103.87Z" fill="#FF8863"/>
<path opacity="0.3" d="M261.601 107.02L198.137 119.658L198.586 121.403L262.05 108.765L261.601 107.02Z" fill="#FF8863"/>
<path d="M170.748 110.437L132.405 118.072L138.39 141.338L176.732 133.703L170.748 110.437Z" fill="#F5F5F5"/>
<path opacity="0.3" d="M216.133 32.9182L177.79 40.5532L183.775 63.8192L222.117 56.1843L216.133 32.9182Z" fill="#FF8863"/>
<path opacity="0.3" d="M253.661 57.2404L215.319 64.8754L221.303 88.1414L259.646 80.5064L253.661 57.2404Z" fill="#FF8863"/>
<g opacity="0.5">
<path opacity="0.5" d="M73.7039 175.459H72.5315V181.304H73.7039V175.459Z" fill="#47E6B1"/>
<path opacity="0.5" d="M76.4395 178.898V177.866H69.7958V178.898H76.4395Z" fill="#47E6B1"/>
</g>
<g opacity="0.5">
<path opacity="0.5" d="M201.496 0H200.323V5.84535H201.496V0Z" fill="#47E6B1"/>
<path opacity="0.5" d="M204.231 3.43845V2.40692L197.588 2.40692V3.43845L204.231 3.43845Z" fill="#47E6B1"/>
</g>
<g opacity="0.5">
<path opacity="0.5" d="M347.264 42.9805H346.092V48.8259H347.264V42.9805Z" fill="#47E6B1"/>
<path opacity="0.5" d="M350 46.419V45.3875H343.356V46.419H350Z" fill="#47E6B1"/>
</g>
<path opacity="0.5" d="M140.801 174.876C140.478 174.753 140.218 174.529 140.071 174.247C139.923 173.965 139.898 173.646 140.001 173.349C140.018 173.304 140.028 173.257 140.033 173.209V173.209C140.042 173.073 140.001 172.938 139.917 172.824C139.832 172.71 139.708 172.623 139.563 172.576C139.418 172.529 139.259 172.525 139.111 172.563C138.962 172.601 138.832 172.681 138.739 172.789V172.789C138.707 172.828 138.68 172.87 138.659 172.914C138.518 173.198 138.264 173.427 137.944 173.557C137.624 173.687 137.261 173.708 136.924 173.618C136.872 173.603 136.818 173.594 136.764 173.59V173.59C136.61 173.582 136.457 173.618 136.327 173.692C136.197 173.767 136.099 173.876 136.045 174.003C135.991 174.131 135.986 174.271 136.03 174.401C136.073 174.532 136.164 174.647 136.287 174.729C136.331 174.757 136.378 174.78 136.428 174.799C136.752 174.923 137.012 175.147 137.159 175.428C137.307 175.71 137.331 176.029 137.229 176.326C137.212 176.371 137.202 176.418 137.197 176.466V176.466C137.188 176.602 137.229 176.737 137.313 176.851C137.398 176.965 137.522 177.052 137.667 177.099C137.812 177.146 137.971 177.151 138.119 177.112C138.268 177.074 138.398 176.994 138.491 176.886V176.886C138.523 176.847 138.55 176.805 138.571 176.761C138.712 176.477 138.966 176.248 139.286 176.118C139.606 175.989 139.969 175.967 140.306 176.057C140.358 176.072 140.411 176.081 140.466 176.085V176.085C140.62 176.093 140.773 176.057 140.903 175.983C141.033 175.909 141.131 175.799 141.185 175.672C141.238 175.544 141.244 175.404 141.2 175.274C141.157 175.143 141.066 175.029 140.943 174.947V174.947C140.899 174.918 140.852 174.895 140.801 174.876V174.876Z" fill="#4D8AF0"/>
<path opacity="0.5" d="M197.936 217.737C197.613 217.613 197.353 217.389 197.205 217.108C197.058 216.826 197.033 216.506 197.136 216.21C197.152 216.164 197.163 216.117 197.167 216.07V216.07C197.176 215.934 197.136 215.799 197.051 215.685C196.966 215.571 196.842 215.484 196.697 215.437C196.552 215.39 196.394 215.385 196.245 215.423C196.097 215.462 195.966 215.541 195.873 215.65V215.65C195.841 215.688 195.814 215.73 195.793 215.774C195.653 216.059 195.398 216.287 195.078 216.417C194.758 216.547 194.395 216.569 194.058 216.478C194.006 216.464 193.953 216.454 193.899 216.451V216.451C193.744 216.443 193.591 216.478 193.461 216.553C193.332 216.627 193.233 216.736 193.179 216.864C193.126 216.992 193.12 217.131 193.164 217.262C193.208 217.392 193.298 217.507 193.421 217.589C193.465 217.617 193.513 217.641 193.563 217.659C193.886 217.783 194.146 218.007 194.293 218.289C194.441 218.57 194.466 218.89 194.363 219.186C194.346 219.232 194.336 219.279 194.332 219.326C194.322 219.462 194.363 219.597 194.447 219.711C194.532 219.825 194.656 219.912 194.801 219.959C194.946 220.006 195.105 220.011 195.253 219.973C195.402 219.934 195.532 219.855 195.625 219.746C195.657 219.708 195.684 219.666 195.705 219.622C195.846 219.338 196.1 219.109 196.42 218.979C196.74 218.849 197.104 218.827 197.441 218.918C197.492 218.932 197.546 218.942 197.6 218.945C197.754 218.954 197.908 218.918 198.037 218.843C198.167 218.769 198.266 218.66 198.319 218.532C198.373 218.404 198.378 218.265 198.335 218.134C198.291 218.004 198.201 217.889 198.077 217.807C198.033 217.779 197.986 217.755 197.936 217.737V217.737Z" fill="#4D8AF0"/>
<path opacity="0.5" d="M4.80269 72.6562C4.47961 72.5324 4.21954 72.3084 4.07199 72.0268C3.92445 71.7452 3.89973 71.4258 4.00254 71.1292C4.01917 71.0837 4.02966 71.0367 4.03376 70.9891C4.04317 70.8532 4.00258 70.7183 3.91801 70.6043C3.83344 70.4903 3.70939 70.4033 3.56423 70.3562C3.41908 70.3091 3.26053 70.3043 3.11208 70.3427C2.96364 70.3811 2.83318 70.4605 2.74004 70.5692V70.5692C2.70801 70.6077 2.68126 70.6495 2.66035 70.6936C2.51964 70.9778 2.26504 71.2067 1.94501 71.3365C1.62499 71.4663 1.26188 71.488 0.924808 71.3976C0.873131 71.3829 0.81967 71.3737 0.765538 71.3701V71.3701C0.611105 71.3618 0.457756 71.3976 0.328195 71.472C0.198634 71.5464 0.0997568 71.6555 0.0462098 71.7832C-0.00733717 71.9109 -0.0127071 72.0504 0.0308964 72.181C0.0745 72.3117 0.164759 72.4264 0.288302 72.5084V72.5084C0.332136 72.5366 0.379594 72.5601 0.429694 72.5785C0.752785 72.7023 1.01285 72.9263 1.1604 73.2079C1.30795 73.4895 1.33267 73.8089 1.22985 74.1055C1.21322 74.151 1.20273 74.198 1.19862 74.2456C1.18922 74.3815 1.22982 74.5164 1.31439 74.6304C1.39895 74.7444 1.52301 74.8314 1.66816 74.8785C1.81332 74.9256 1.97186 74.9304 2.1203 74.892C2.26875 74.8536 2.3992 74.7742 2.49235 74.6655C2.52437 74.627 2.55112 74.5852 2.57203 74.5411C2.71274 74.2569 2.96734 74.028 3.28737 73.8982C3.6074 73.7684 3.97051 73.7467 4.30758 73.8371C4.35926 73.8518 4.41271 73.861 4.46684 73.8646V73.8646C4.62128 73.8729 4.77463 73.8371 4.90419 73.7627C5.03375 73.6883 5.13262 73.5792 5.18617 73.4515C5.23971 73.3238 5.24509 73.1843 5.20149 73.0537C5.15788 72.923 5.06763 72.8083 4.94409 72.7263V72.7263C4.90025 72.6981 4.85279 72.6746 4.80269 72.6562V72.6562Z" fill="#4D8AF0"/>
<path opacity="0.5" d="M342.923 124.899C342.6 124.775 342.34 124.551 342.192 124.27C342.045 123.988 342.02 123.669 342.123 123.372C342.139 123.326 342.15 123.279 342.154 123.232V123.232C342.163 123.096 342.123 122.961 342.038 122.847C341.954 122.733 341.829 122.646 341.684 122.599C341.539 122.552 341.381 122.547 341.232 122.585C341.084 122.624 340.953 122.703 340.86 122.812V122.812C340.828 122.85 340.801 122.892 340.78 122.936C340.64 123.221 340.385 123.449 340.065 123.579C339.745 123.709 339.382 123.731 339.045 123.64C338.993 123.626 338.94 123.616 338.886 123.613V123.613C338.731 123.605 338.578 123.64 338.448 123.715C338.319 123.789 338.22 123.898 338.166 124.026C338.113 124.154 338.107 124.293 338.151 124.424C338.195 124.554 338.285 124.669 338.408 124.751V124.751C338.452 124.779 338.5 124.803 338.55 124.821C338.873 124.945 339.133 125.169 339.281 125.451C339.428 125.732 339.453 126.052 339.35 126.348C339.333 126.394 339.323 126.441 339.319 126.488V126.488C339.309 126.624 339.35 126.759 339.434 126.873C339.519 126.987 339.643 127.074 339.788 127.121C339.933 127.168 340.092 127.173 340.24 127.135C340.389 127.096 340.519 127.017 340.612 126.908C340.644 126.87 340.671 126.828 340.692 126.784C340.833 126.5 341.087 126.271 341.407 126.141C341.727 126.011 342.091 125.989 342.428 126.08C342.479 126.095 342.533 126.104 342.587 126.107V126.107C342.741 126.116 342.895 126.08 343.024 126.006C343.154 125.931 343.253 125.822 343.306 125.694C343.36 125.567 343.365 125.427 343.322 125.296C343.278 125.166 343.188 125.051 343.064 124.969V124.969C343.02 124.941 342.973 124.917 342.923 124.899V124.899Z" fill="#4D8AF0"/>
<path opacity="0.5" d="M42.0491 158.611C43.3441 158.611 44.394 157.687 44.394 156.548C44.394 155.408 43.3441 154.485 42.0491 154.485C40.7541 154.485 39.7043 155.408 39.7043 156.548C39.7043 157.687 40.7541 158.611 42.0491 158.611Z" fill="#FF8863"/>
<path opacity="0.5" d="M125.681 4.12613C126.976 4.12613 128.025 3.20247 128.025 2.06307C128.025 0.923666 126.976 0 125.681 0C124.385 0 123.336 0.923666 123.336 2.06307C123.336 3.20247 124.385 4.12613 125.681 4.12613Z" fill="#4D8AF0"/>
<path opacity="0.5" d="M181.252 159.522C182.547 159.522 183.596 158.598 183.596 157.459C183.596 156.32 182.547 155.396 181.252 155.396C179.957 155.396 178.907 156.32 178.907 157.459C178.907 158.598 179.957 159.522 181.252 159.522Z" fill="#47E6B1"/>
<path opacity="0.5" d="M316.469 211.099C317.764 211.099 318.813 210.175 318.813 209.036C318.813 207.896 317.764 206.973 316.469 206.973C315.174 206.973 314.124 207.896 314.124 209.036C314.124 210.175 315.174 211.099 316.469 211.099Z" fill="#FF8863"/>
<path d="M271.58 45.2089L202.551 58.9543C199.723 59.5175 197.949 61.9913 198.589 64.4797L222.323 156.751C222.963 159.24 225.775 160.801 228.603 160.237L297.632 146.492C300.461 145.929 302.234 143.455 301.594 140.967L277.86 48.6949C277.22 46.2065 274.408 44.6458 271.58 45.2089Z" fill="#FF8863"/>
<path d="M205.404 75.6457C206.699 75.6457 207.748 74.722 207.748 73.5827C207.748 72.4433 206.699 71.5196 205.404 71.5196C204.109 71.5196 203.059 72.4433 203.059 73.5827C203.059 74.722 204.109 75.6457 205.404 75.6457Z" fill="white"/>
<path d="M207.749 83.2103C209.044 83.2103 210.093 82.2867 210.093 81.1473C210.093 80.0079 209.044 79.0842 207.749 79.0842C206.454 79.0842 205.404 80.0079 205.404 81.1473C205.404 82.2867 206.454 83.2103 207.749 83.2103Z" fill="white"/>
<path d="M222.99 138.569C224.285 138.569 225.335 137.646 225.335 136.506C225.335 135.367 224.285 134.443 222.99 134.443C221.695 134.443 220.645 135.367 220.645 136.506C220.645 137.646 221.695 138.569 222.99 138.569Z" fill="white"/>
<path d="M225.335 146.134C226.63 146.134 227.679 145.21 227.679 144.071C227.679 142.931 226.63 142.008 225.335 142.008C224.04 142.008 222.99 142.931 222.99 144.071C222.99 145.21 224.04 146.134 225.335 146.134Z" fill="white"/>
<path d="M271.288 83.5831L223.69 93.061L225.486 100.041L273.084 90.5629L271.288 83.5831Z" fill="#F5F5F5"/>
</svg>
