<svg width="150" height="106" viewBox="0 0 150 106" fill="none" xmlns="http://www.w3.org/2000/svg">
<path d="M149.945 62.0871C149.944 59.7985 149.393 57.5388 148.333 55.4718C147.273 53.4048 145.729 51.5822 143.815 50.136C141.901 48.6899 139.663 47.6564 137.265 47.1105C134.866 46.5646 132.367 46.52 129.947 46.9798C127.528 47.4396 125.249 48.3924 123.276 49.7691C121.303 51.1458 119.685 52.912 118.54 54.9396C117.395 56.9673 116.75 59.2056 116.654 61.4925C116.557 63.7794 117.011 66.0575 117.982 68.1618C117.966 68.145 117.949 68.1287 117.933 68.1119C118.672 69.7092 119.698 71.1795 120.966 72.4606C120.969 72.4644 120.973 72.4682 120.977 72.472C121.079 72.5754 121.182 72.6781 121.287 72.7788C122.809 74.2495 124.631 75.4255 126.647 76.2384C128.663 77.0513 130.834 77.485 133.032 77.5143L132.47 105.834H134.208L133.856 87.1427L136.371 85.9159L135.987 85.2408L133.84 86.2882L133.675 77.5128C138.024 77.4205 142.161 75.7547 145.202 72.8719C148.243 69.9891 149.945 66.1182 149.945 62.0871Z" fill="#E6E6E6"/>
<path d="M100.522 54.5665C100.52 51.8844 99.8746 49.2363 98.6322 46.8139C97.3897 44.3915 95.5813 42.2556 93.3379 40.5608C91.0946 38.8661 88.4725 37.6549 85.6616 37.0152C82.8507 36.3755 79.9215 36.3232 77.0861 36.862C74.2507 37.4009 71.5801 38.5175 69.268 40.1309C66.9558 41.7443 65.0599 43.814 63.7176 46.1902C62.3753 48.5665 61.6203 51.1896 61.5072 53.8696C61.3941 56.5496 61.9258 59.2194 63.0638 61.6854C63.0447 61.6658 63.025 61.6467 63.006 61.6269C63.8728 63.4989 65.0744 65.2219 66.5602 66.7232C66.5646 66.7278 66.5692 66.7322 66.5736 66.7367C66.6935 66.8578 66.8141 66.9782 66.9374 67.0962C68.7207 68.8197 70.8558 70.1978 73.2185 71.1505C75.5813 72.1032 78.1248 72.6114 80.7013 72.6457L80.0419 105.834H82.0792L81.6668 83.9294L84.6138 82.4917L84.1642 81.7005L81.648 82.928L81.4544 72.6441C86.5511 72.5358 91.3997 70.5837 94.963 67.2053C98.5264 63.8269 100.521 59.2905 100.522 54.5665Z" fill="#E6E6E6"/>
<path d="M44.4707 47.4926C44.469 44.4405 43.7346 41.4269 42.3207 38.6703C40.9068 35.9137 38.8488 33.483 36.296 31.5544C33.7431 29.6258 30.7592 28.2476 27.5604 27.5196C24.3617 26.7916 21.0283 26.7321 17.8017 27.3453C14.575 27.9585 11.536 29.2292 8.90482 31.0652C6.27361 32.9011 4.11611 35.2565 2.58862 37.9606C1.06114 40.6647 0.20192 43.6498 0.0732316 46.6996C-0.0554569 49.7494 0.549603 52.7875 1.84457 55.5938C1.82286 55.5715 1.80042 55.5497 1.77881 55.5272C2.76519 57.6575 4.1326 59.6182 5.82341 61.3267C5.82846 61.3319 5.83364 61.3369 5.8387 61.342C5.97512 61.4798 6.11233 61.6169 6.25271 61.7512C8.28207 63.7125 10.7117 65.2807 13.4005 66.3649C16.0893 67.449 18.9837 68.0273 21.9157 68.0664L21.1653 105.834H23.4837L23.0145 80.907L26.3681 79.271L25.8565 78.3706L22.993 79.7675L22.7727 68.0645C28.5727 67.9413 34.0903 65.7198 38.1453 61.8753C42.2003 58.0307 44.4707 52.8684 44.4707 47.4926V47.4926Z" fill="#E6E6E6"/>
<path d="M127.818 26.9147C135.839 26.9147 142.341 20.8897 142.341 13.4574C142.341 6.02507 135.839 0 127.818 0C119.798 0 113.296 6.02507 113.296 13.4574C113.296 20.8897 119.798 26.9147 127.818 26.9147Z" fill="#FF6584"/>
<path d="M41.4795 56.3379C57.5547 56.3379 70.5862 44.2625 70.5862 29.3668C70.5862 14.471 57.5547 2.39563 41.4795 2.39563C25.4043 2.39563 12.3728 14.471 12.3728 29.3668C12.3728 44.2625 25.4043 56.3379 41.4795 56.3379Z" fill="#FF8863"/>
<path opacity="0.2" d="M19.988 11.3521C17.273 17.237 16.9047 23.8247 18.9489 29.9381C20.9931 36.0514 25.3166 41.2921 31.1469 44.7235C36.9771 48.155 43.9341 49.5536 50.7748 48.6695C57.6154 47.7854 63.894 44.6762 68.4884 39.8975C66.8299 43.4929 64.3476 46.7113 61.2136 49.3295C58.0795 51.9477 54.3686 53.9033 50.338 55.0606C46.3073 56.218 42.0533 56.5495 37.8707 56.0321C33.6881 55.5148 29.6768 54.1611 26.1149 52.0646C22.5529 49.9682 19.5254 47.1793 17.2422 43.891C14.9589 40.6027 13.4744 36.8938 12.8916 33.0212C12.3088 29.1485 12.6416 25.2048 13.867 21.4631C15.0923 17.7215 17.1809 14.2715 19.988 11.3521Z" fill="black"/>
<path d="M41.5594 29.3667H41.6395L43.0788 105.834H40.0402L41.5594 29.3667Z" fill="#3F3D56"/>
<path d="M46.8594 71.0182L46.1888 69.838L41.3774 72.1853L42.048 73.3654L46.8594 71.0182Z" fill="#3F3D56"/>
<path d="M85.9991 105.119C85.9991 105.119 86.1042 103.08 88.257 103.317Z" fill="#3F3D56"/>
<path d="M85.3909 103.179C85.986 103.179 86.4684 102.732 86.4684 102.18C86.4684 101.629 85.986 101.182 85.3909 101.182C84.7959 101.182 84.3135 101.629 84.3135 102.18C84.3135 102.732 84.7959 103.179 85.3909 103.179Z" fill="#FF8863"/>
<path d="M85.5197 103.861H85.2156V105.834H85.5197V103.861Z" fill="#3F3D56"/>
<path d="M11.3315 104.837C11.3315 104.837 11.4366 102.798 13.5894 103.035Z" fill="#3F3D56"/>
<path d="M10.7232 102.897C11.3183 102.897 11.8007 102.45 11.8007 101.898C11.8007 101.347 11.3183 100.9 10.7232 100.9C10.1282 100.9 9.64575 101.347 9.64575 101.898C9.64575 102.45 10.1282 102.897 10.7232 102.897Z" fill="#FF8863"/>
<path d="M10.8521 103.58H10.548V105.553H10.8521V103.58Z" fill="#3F3D56"/>
<path d="M28.972 104.978C28.972 104.978 29.0771 102.939 31.2299 103.176Z" fill="#3F3D56"/>
<path d="M28.3637 103.038C28.9588 103.038 29.4412 102.591 29.4412 102.039C29.4412 101.488 28.9588 101.041 28.3637 101.041C27.7687 101.041 27.2863 101.488 27.2863 102.039C27.2863 102.591 27.7687 103.038 28.3637 103.038Z" fill="#FF8863"/>
<path d="M28.4925 103.721H28.1884V105.693H28.4925V103.721Z" fill="#3F3D56"/>
<path d="M75.8857 13.0383L78.047 11.4365C76.368 11.2648 75.6781 12.1134 75.3958 12.785C74.0841 12.2803 72.6561 12.9417 72.6561 12.9417L76.9805 14.3964C76.7623 13.8565 76.3825 13.3853 75.8857 13.0383Z" fill="#3F3D56"/>
<path d="M108.755 29.3547L110.916 27.7529C109.237 27.5813 108.547 28.4298 108.265 29.1014C106.953 28.5967 105.525 29.2581 105.525 29.2581L109.849 30.7128C109.631 30.1729 109.251 29.7018 108.755 29.3547V29.3547Z" fill="#3F3D56"/>
<path d="M73.3031 43.278L75.4644 41.6762C73.7854 41.5046 73.0955 42.3531 72.8131 43.0247C71.5014 42.52 70.0735 43.1814 70.0735 43.1814L74.3978 44.6361C74.1797 44.0962 73.7999 43.6251 73.3031 43.278V43.278Z" fill="#3F3D56"/>
<path d="M60.6851 96.7137C60.6851 96.7137 62.3778 101.307 61.6524 102.988L63.8288 104.781L65.1588 103.212C65.1588 103.212 63.7079 101.868 63.8288 100.859C63.9497 99.8508 64.0706 96.2655 64.0706 96.2655L60.6851 96.7137Z" fill="#FFB9B9"/>
<path d="M68.7854 105.676C68.6866 105.73 68.5923 105.781 68.5056 105.827H61.0008C60.9313 105.79 60.8754 105.735 60.8407 105.668C60.8059 105.601 60.7939 105.526 60.8062 105.452C60.8412 105.286 60.9309 104.948 61.0419 104.559C61.305 103.639 61.6913 102.434 61.7749 102.562C61.7751 102.562 61.7753 102.562 61.7755 102.562C61.7757 102.562 61.7758 102.562 61.776 102.563C61.7761 102.563 61.7762 102.563 61.7763 102.563C61.7764 102.563 61.7764 102.563 61.7764 102.564C61.8935 102.764 62.1353 103.66 62.7406 103.549C63.3458 103.436 64.313 103.212 64.313 103.212C64.313 103.212 63.9678 102.493 64.2978 102.203C64.3688 102.142 64.4587 102.103 64.5548 102.091C65.2802 101.98 65.2802 102.988 65.2802 102.988L67.9399 104.332C68.1692 104.391 68.393 104.467 68.609 104.559C69.1489 104.793 69.6827 105.193 68.7854 105.676Z" fill="#2F2E41"/>
<path d="M55.8485 95.0331L52.7048 98.5063L51.8584 100.299L52.9466 101.083L53.9139 100.747C53.9139 100.747 54.7603 98.7304 55.6067 98.3943C56.4531 98.0582 58.5086 95.8174 58.5086 95.8174L55.8485 95.0331Z" fill="#FFB9B9"/>
<path d="M62.4383 92.3676L60.835 95.1216L59.6863 97.0935C59.3188 97.2963 58.8291 97.2929 58.3019 97.173C58.0562 97.1148 57.8154 97.0403 57.5812 96.9501C56.1424 96.4044 54.683 95.321 54.683 95.321L57.4446 92.1234L58.3466 91.0803L58.5606 90.8315L59.592 91.2405L61.4117 91.9609L62.4383 92.3676Z" fill="#2F2E41"/>
<path d="M55.2828 68.587L54.0021 73.455L55.3204 79.7003C55.3204 79.7003 55.3528 82.2533 56.5609 82.0596C57.7689 81.8658 56.5029 79.291 56.5029 79.291L55.912 74.1701L57.8013 69.111C57.872 68.9041 57.8624 68.6808 57.7741 68.4798C57.6858 68.2787 57.5243 68.1127 57.3178 68.0104V68.0104C56.5697 67.5871 55.5067 67.8883 55.2828 68.587Z" fill="#FFB9B9"/>
<path d="M59.7782 64.3901L58.69 67.5272L56.6345 66.5188C56.6345 66.5188 57.4809 64.278 57.4809 63.9419C57.4809 63.6058 59.7782 64.3901 59.7782 64.3901Z" fill="#FFB9B9"/>
<path d="M58.9318 65.6225C60.3342 65.6225 61.471 64.569 61.471 63.2696C61.471 61.9702 60.3342 60.9167 58.9318 60.9167C57.5295 60.9167 56.3927 61.9702 56.3927 63.2696C56.3927 64.569 57.5295 65.6225 58.9318 65.6225Z" fill="#FFB9B9"/>
<path d="M59.5969 68.2553L59.1132 67.8072L58.9923 67.247C58.9923 67.247 57.4205 65.3423 56.0904 66.0145C55.6748 66.2246 55.3655 66.7082 55.1365 67.2739C54.5535 68.7524 54.6079 70.3822 55.2884 71.8244L57.4205 76.4343L62.2569 75.9861L61.4106 73.0731C61.4106 73.0731 62.2569 71.2804 60.6851 70.048L59.5969 68.2553Z" fill="#FF8863"/>
<path opacity="0.3" d="M62.4382 92.3676L60.8349 95.1216L59.6863 97.0935C59.3187 97.2963 58.829 97.2929 58.3018 97.173C58.2099 96.6061 58.7589 93.6102 58.3272 91.1677L58.3466 91.0803L58.5606 90.8315L59.592 91.2405L61.4117 91.9609L62.4382 92.3676Z" fill="black"/>
<path d="M62.4383 75.7061C62.4383 75.7061 59.2946 73.9134 57.1182 76.1543L57.2391 76.8265C57.2391 76.8265 55.4254 78.7312 56.5136 82.7646C57.6018 86.7981 59.2946 97.3299 59.2946 97.3299C59.2946 97.3299 63.2847 97.554 65.0983 96.3215C65.0983 96.3215 64.4938 82.4285 62.4383 81.084V75.7061Z" fill="#2F2E41"/>
<path d="M55.8829 69.4659L59.2945 73.3533L65.461 76.1543C65.461 76.1543 67.6757 77.6732 68.2392 76.6642C68.8027 75.6553 65.8237 75.0339 65.8237 75.0339L61.0636 72.3754L57.8555 67.9232C57.7203 67.746 57.5225 67.6181 57.2963 67.5618C57.0701 67.5055 56.8297 67.5244 56.6169 67.6151C55.8009 67.9115 55.4174 68.8783 55.8829 69.4659Z" fill="#FFB9B9"/>
<path d="M53.6227 100.501C53.6227 100.501 54.3638 99.6373 54.8065 100.182C55.2493 100.726 54.2844 101.192 54.2844 101.192L54.2283 103.999C54.2283 103.999 54.7548 106.146 53.3333 105.317C51.9118 104.487 51.8559 104.388 51.5763 103.891C51.2967 103.394 50.7189 101.399 50.2202 100.756C49.7216 100.112 49.2649 98.8164 49.8569 98.6566C50.4488 98.4969 53.2079 97.9281 53.0705 98.1175C52.933 98.307 52.1872 98.9202 52.5741 99.3651C52.9609 99.81 53.6227 100.501 53.6227 100.501Z" fill="#2F2E41"/>
<path d="M60.2615 61.2614C60.2615 61.2585 60.2618 61.2557 60.2618 61.2528C60.2618 60.6102 60.0561 59.982 59.6708 59.4477C59.2855 58.9134 58.7379 58.4969 58.0972 58.251C57.4565 58.0051 56.7514 57.9407 56.0713 58.0661C55.3911 58.1915 54.7663 58.5009 54.2759 58.9553C53.7855 59.4097 53.4516 59.9887 53.3163 60.6189C53.181 61.2492 53.2504 61.9025 53.5158 62.4962C53.7812 63.0899 54.2306 63.5974 54.8073 63.9544C55.3839 64.3114 56.0618 64.502 56.7553 64.502C56.8368 64.502 57.1589 65.0673 57.239 65.0622C57.2438 63.3471 58.4411 61.3766 60.2615 61.2614Z" fill="#2F2E41"/>
<path d="M53.0072 60.9167C54.2759 60.9167 55.3045 59.9636 55.3045 58.7879C55.3045 57.6123 54.2759 56.6592 53.0072 56.6592C51.7384 56.6592 50.7098 57.6123 50.7098 58.7879C50.7098 59.9636 51.7384 60.9167 53.0072 60.9167Z" fill="#2F2E41"/>
<path d="M52.9017 55.5632C53.4553 55.56 53.9915 55.7424 54.4114 56.0767C54.8313 56.411 55.1065 56.8748 55.1863 57.3824C55.2662 57.89 55.1452 58.4073 54.8458 58.8388C54.5464 59.2703 54.0887 59.5869 53.5572 59.7302C53.8863 59.7297 54.2115 59.6636 54.5106 59.5365C54.8098 59.4093 55.076 59.224 55.2911 58.9931C55.5062 58.7623 55.6652 58.4913 55.7573 58.1985C55.8495 57.9057 55.8726 57.598 55.8251 57.2962C55.7776 56.9943 55.6607 56.7055 55.4822 56.4493C55.3037 56.193 55.0678 55.9754 54.7905 55.811C54.5133 55.6466 54.2011 55.5395 53.8752 55.4967C53.5493 55.454 53.2173 55.4766 52.9017 55.5632V55.5632Z" fill="#2F2E41"/>
<path d="M58.3273 60.5807H59.5364C60.1136 60.5807 60.6672 60.7932 61.0753 61.1714C61.4835 61.5496 61.7128 62.0625 61.7128 62.5974V62.5974H58.3273V60.5807Z" fill="#2F2E41"/>
<path d="M115.482 105.859C115.482 105.859 115.587 103.82 117.74 104.057Z" fill="#3F3D56"/>
<path d="M95.2567 105.859C95.2567 105.859 95.3617 103.82 97.5145 104.057Z" fill="#3F3D56"/>
<path d="M21.5015 105.859C21.5015 105.859 21.6065 103.82 23.7593 104.057Z" fill="#3F3D56"/>
<path d="M124.607 105.859C124.607 105.859 124.712 103.82 126.865 104.057Z" fill="#3F3D56"/>
<path d="M120.349 105.859C120.349 105.859 120.454 103.82 122.606 104.057Z" fill="#3F3D56"/>
<path d="M111.565 105.859C111.565 105.859 111.46 103.82 109.307 104.057Z" fill="#3F3D56"/>
<path d="M76.5883 105.859C76.5883 105.859 76.4833 103.82 74.3304 104.057Z" fill="#3F3D56"/>
<path d="M47.5425 105.859C47.5425 105.859 47.4375 103.82 45.2847 104.057Z" fill="#3F3D56"/>
<path d="M16.6718 105.859C16.6718 105.859 16.5668 103.82 14.4139 104.057Z" fill="#3F3D56"/>
<path d="M133.768 105.859C133.768 105.859 133.663 103.82 131.51 104.057Z" fill="#3F3D56"/>
<path d="M120.689 106C120.689 106 120.584 103.961 118.432 104.198Z" fill="#3F3D56"/>
<path d="M150 105.593H0V105.906H150V105.593Z" fill="#3F3D56"/>
</svg>
